<?xml version="1.0" standalone="no"?>
<!DOCTYPE svg PUBLIC "-//W3C//DTD SVG 20010904//EN"
 "http://www.w3.org/TR/2001/REC-SVG-20010904/DTD/svg10.dtd">
<svg version="1.0" xmlns="http://www.w3.org/2000/svg"
 width="2040.000000pt" height="1510.000000pt" viewBox="0 0 2040.000000 1510.000000"
 preserveAspectRatio="xMidYMid meet">

<g transform="translate(0.000000,1510.000000) scale(0.100000,-0.100000)"
fill="#000000" stroke="none">
<path d="M0 7550 l0 -7550 10200 0 10200 0 0 7550 0 7550 -10200 0 -10200 0 0
-7550z m14895 7520 c50 -5 170 -14 268 -19 98 -5 183 -14 190 -19 7 -6 46 -14
87 -18 41 -4 85 -11 98 -15 13 -5 76 -18 140 -29 123 -22 170 -34 212 -55 14
-7 45 -16 70 -20 25 -4 50 -11 55 -15 11 -9 39 -18 175 -60 41 -12 89 -29 107
-36 17 -8 36 -14 42 -14 7 0 34 -11 61 -25 27 -14 55 -25 62 -25 7 0 24 -9 38
-20 14 -11 34 -20 46 -20 11 0 29 -9 39 -20 10 -11 25 -20 34 -20 9 0 66 -25
126 -55 61 -30 114 -55 119 -55 5 0 24 -11 42 -25 18 -14 39 -25 47 -25 7 0
24 -11 37 -25 13 -14 29 -25 35 -25 6 0 34 -16 61 -35 27 -19 53 -35 58 -35 4
0 21 -11 38 -25 16 -14 36 -25 43 -25 7 0 32 -16 55 -35 23 -19 47 -35 54 -35
6 0 23 -11 38 -25 15 -14 30 -25 33 -25 7 0 17 -7 88 -70 31 -27 62 -50 68
-50 6 0 38 -25 72 -55 33 -30 65 -55 70 -55 16 0 194 -160 383 -345 45 -44
114 -110 153 -147 38 -37 88 -91 109 -120 21 -29 54 -69 73 -88 19 -19 53 -61
77 -92 23 -32 47 -58 52 -58 14 0 230 -275 260 -330 14 -26 45 -75 70 -109
164 -224 212 -294 242 -356 19 -38 53 -99 77 -134 23 -36 58 -95 76 -132 18
-37 51 -93 73 -126 21 -32 43 -69 47 -83 4 -14 22 -52 39 -85 18 -33 39 -78
46 -99 7 -22 26 -60 41 -85 16 -25 29 -50 29 -56 0 -7 20 -52 45 -101 25 -49
45 -97 45 -106 0 -9 4 -20 10 -23 10 -6 34 -57 43 -90 3 -11 24 -67 47 -125
38 -97 59 -151 90 -240 7 -19 21 -54 31 -78 11 -23 19 -49 19 -58 0 -8 7 -29
16 -46 9 -16 22 -56 30 -87 8 -31 19 -60 25 -65 5 -6 9 -22 9 -37 0 -15 11
-60 25 -101 14 -40 25 -81 25 -90 0 -10 6 -32 14 -50 7 -18 19 -53 25 -78 7
-25 16 -58 20 -75 5 -16 16 -57 26 -90 18 -64 46 -193 69 -315 8 -41 20 -97
26 -125 6 -27 15 -70 20 -95 4 -25 17 -92 28 -150 24 -124 31 -167 76 -530 19
-151 38 -324 41 -385 4 -60 9 -132 11 -160 3 -27 6 -252 9 -500 4 -490 -8
-806 -43 -1100 -11 -93 -26 -222 -32 -285 -11 -112 -31 -244 -51 -325 -5 -22
-16 -85 -25 -140 -16 -102 -26 -156 -43 -235 -5 -25 -14 -74 -20 -110 -6 -36
-18 -90 -27 -120 -8 -30 -22 -80 -30 -110 -9 -30 -22 -75 -29 -100 -8 -25 -19
-70 -25 -100 -7 -30 -18 -70 -26 -88 -8 -18 -14 -45 -14 -60 0 -15 -7 -40 -15
-56 -8 -15 -15 -36 -15 -45 0 -21 -87 -275 -116 -338 -7 -17 -14 -38 -14 -47
0 -9 -8 -33 -19 -54 -10 -20 -22 -53 -26 -72 -4 -19 -16 -51 -26 -70 -11 -19
-19 -44 -19 -55 0 -11 -9 -35 -20 -53 -11 -18 -20 -40 -20 -50 0 -9 -20 -57
-45 -106 -25 -49 -45 -95 -45 -102 0 -8 -15 -42 -34 -76 -18 -35 -36 -75 -40
-90 -3 -15 -20 -50 -36 -78 -16 -28 -33 -63 -36 -78 -7 -26 -46 -102 -69 -132
-6 -8 -20 -35 -30 -60 -11 -25 -43 -84 -73 -132 -29 -48 -64 -113 -78 -144
-14 -32 -47 -90 -75 -131 -27 -40 -49 -76 -49 -79 0 -3 -15 -25 -32 -49 -18
-24 -46 -67 -63 -95 -103 -177 -365 -533 -487 -663 -65 -69 -100 -109 -153
-176 -32 -40 -80 -94 -107 -120 -27 -25 -71 -68 -96 -96 -50 -52 -98 -100
-153 -151 -19 -17 -54 -52 -78 -78 -24 -25 -49 -46 -56 -46 -6 0 -27 -16 -46
-36 -18 -20 -46 -44 -60 -53 -25 -16 -82 -64 -193 -163 -29 -27 -57 -48 -61
-48 -4 0 -27 -16 -51 -35 -23 -19 -46 -35 -51 -35 -4 0 -28 -16 -52 -35 -24
-19 -48 -35 -54 -35 -5 0 -25 -14 -44 -30 -18 -17 -39 -30 -46 -30 -7 0 -32
-16 -56 -35 -24 -19 -49 -35 -56 -35 -6 0 -22 -11 -35 -25 -13 -14 -30 -25
-37 -25 -8 0 -29 -11 -46 -24 -18 -13 -50 -31 -72 -41 -22 -9 -51 -23 -65 -31
-14 -8 -92 -48 -175 -90 -82 -41 -157 -78 -165 -83 -28 -15 -85 -38 -125 -50
-22 -7 -49 -16 -60 -20 -11 -5 -54 -21 -95 -36 -41 -14 -91 -33 -110 -40 -103
-39 -259 -84 -335 -97 -33 -6 -96 -25 -140 -44 -72 -30 -95 -34 -235 -44 -85
-5 -193 -15 -240 -20 -158 -17 -383 -30 -660 -35 -151 -3 -347 -8 -435 -10
-88 -2 -380 -6 -650 -9 -1176 -14 -1376 -17 -1645 -22 -157 -3 -325 -7 -375
-9 -49 -1 -371 -6 -715 -9 -1181 -12 -1685 -17 -1845 -21 -625 -15 -681 -16
-1950 -30 -459 -5 -927 -13 -1110 -19 -44 -2 -100 1 -125 5 -25 4 -141 11
-258 14 -117 3 -234 10 -260 16 -26 6 -105 19 -177 29 -165 24 -294 48 -320
59 -19 9 -79 25 -215 58 -36 8 -76 21 -90 28 -14 7 -45 15 -69 19 -24 4 -53
13 -64 21 -12 8 -31 15 -43 15 -12 0 -27 7 -34 15 -7 8 -23 15 -35 15 -12 0
-28 7 -35 15 -7 8 -18 15 -26 15 -14 0 -66 20 -117 46 -16 8 -35 14 -42 14 -7
0 -28 8 -47 17 -18 9 -44 22 -58 29 -72 35 -167 87 -181 100 -8 8 -25 14 -36
14 -11 0 -28 9 -37 19 -10 11 -31 23 -46 26 -15 3 -36 15 -46 26 -9 10 -27 19
-39 19 -12 0 -30 9 -40 20 -10 11 -23 20 -28 20 -6 0 -34 18 -63 40 -29 22
-57 40 -62 40 -5 0 -29 16 -53 35 -24 19 -48 35 -54 35 -5 1 -26 14 -45 30
-19 17 -38 30 -44 30 -5 0 -27 15 -50 33 -23 18 -54 41 -71 52 -16 10 -49 38
-72 62 -23 23 -46 43 -52 43 -6 0 -40 27 -77 60 -36 33 -70 60 -75 60 -5 0
-26 17 -46 37 -21 20 -63 57 -93 82 -30 25 -66 59 -80 76 -13 16 -49 53 -79
80 -90 83 -159 155 -239 250 -41 50 -81 92 -87 95 -7 3 -40 39 -74 80 -34 41
-93 113 -132 160 -109 133 -309 408 -309 426 0 7 -22 41 -48 76 -59 76 -169
248 -183 284 -5 15 -34 64 -63 109 -29 45 -67 111 -85 147 -17 36 -46 87 -64
114 -18 27 -38 67 -46 89 -7 22 -25 60 -40 85 -14 25 -32 63 -40 85 -7 22 -26
61 -42 86 -16 25 -29 52 -29 60 0 12 -17 50 -57 124 -22 41 -75 171 -83 201
-4 18 -15 42 -24 55 -9 13 -16 31 -16 41 0 10 -11 42 -25 72 -14 30 -25 62
-25 71 0 9 -9 33 -20 55 -11 22 -20 46 -20 55 0 9 -11 37 -25 63 -14 26 -25
55 -25 65 0 10 -7 31 -15 46 -8 16 -19 46 -24 67 -5 22 -14 53 -19 69 -33 97
-52 165 -58 205 -4 25 -15 63 -25 85 -10 22 -19 48 -19 58 0 11 -6 33 -14 50
-8 18 -17 46 -19 62 -3 17 -13 55 -22 85 -9 30 -20 78 -25 105 -4 28 -20 106
-35 175 -15 69 -32 161 -40 205 -7 44 -18 91 -24 105 -15 36 -35 177 -91 640
-34 281 -37 315 -45 534 -3 89 -8 202 -11 251 -17 235 1 918 31 1205 3 25 10
92 15 150 18 198 68 527 103 690 8 36 18 90 22 120 4 30 13 73 20 95 7 22 16
65 20 95 3 30 12 69 20 85 7 17 16 57 19 90 4 33 13 76 20 95 7 19 19 55 25
80 30 115 60 217 70 243 6 16 11 41 11 56 0 15 4 31 9 37 5 5 16 34 24 64 16
57 27 90 58 175 10 28 23 69 29 92 6 23 15 45 20 48 6 3 10 18 10 32 0 15 8
45 19 67 10 23 25 61 34 86 32 93 64 176 85 217 12 23 22 48 22 55 0 8 13 40
30 73 16 33 30 66 30 73 0 7 18 47 40 88 22 42 40 83 40 93 0 9 4 21 9 27 14
14 71 127 71 140 0 15 18 50 46 89 12 17 42 73 68 125 25 52 57 113 71 135 13
22 41 72 61 110 20 39 69 120 109 180 39 61 98 152 131 204 122 192 268 401
298 426 6 6 25 28 41 50 16 22 79 96 140 165 61 69 128 148 150 175 44 57 407
421 445 447 14 10 48 38 75 63 28 25 80 72 116 105 36 33 71 60 78 60 6 0 31
18 55 40 24 22 47 40 51 40 4 0 29 18 55 40 26 22 52 40 57 40 5 0 22 14 39
31 16 17 43 38 60 47 69 37 143 84 154 97 7 8 18 15 25 15 8 0 26 11 42 23 26
22 52 38 113 69 14 6 44 25 67 40 23 15 47 28 53 28 7 0 24 8 38 18 24 16 157
82 292 144 25 12 57 27 72 35 14 7 31 13 37 13 6 0 35 12 64 26 45 22 412 149
456 158 9 2 23 5 31 8 8 3 47 11 85 18 39 6 79 15 90 19 41 17 213 52 300 62
50 5 124 16 165 24 41 8 161 17 265 20 105 4 206 8 225 10 103 9 567 16 1540
26 597 6 1117 12 1155 14 257 12 494 16 1515 26 630 5 1181 12 1225 15 90 6
1990 32 2451 34 166 0 314 5 330 9 40 12 919 12 1029 1z"/>
<path d="M14010 13589 c-47 -4 -645 -12 -1330 -19 -685 -6 -1267 -14 -1295
-17 -27 -2 -295 -9 -595 -13 -300 -5 -564 -9 -588 -9 l-43 -1 3 -112 3 -113
45 -7 c25 -3 163 -7 306 -7 l262 -1 53 -28 c101 -52 119 -97 179 -432 17 -96
38 -206 45 -245 26 -136 46 -242 81 -435 19 -107 42 -231 50 -275 8 -44 22
-118 30 -165 8 -47 21 -94 28 -105 8 -12 39 -28 77 -38 130 -38 419 -152 583
-230 163 -78 169 -81 195 -66 23 14 276 198 1036 754 206 151 208 152 272 165
61 11 130 -3 182 -38 22 -15 267 -251 544 -524 548 -540 547 -539 547 -645 -1
-88 -7 -99 -295 -513 -282 -405 -605 -881 -605 -892 0 -7 29 -69 64 -138 82
-161 177 -383 227 -535 22 -66 44 -126 48 -134 9 -15 48 -24 191 -46 338 -52
433 -66 500 -76 41 -6 78 -13 82 -15 3 -2 82 -11 175 -19 92 -8 184 -19 203
-25 46 -14 204 -45 305 -61 133 -20 203 -67 245 -163 22 -48 22 -59 28 -771 4
-589 3 -732 -8 -772 -18 -61 -99 -146 -156 -162 -34 -10 -304 -61 -689 -132
-60 -11 -171 -31 -245 -45 -74 -14 -169 -31 -210 -39 -341 -62 -374 -69 -390
-85 -9 -9 -27 -50 -39 -91 -47 -160 -154 -429 -243 -612 -26 -54 -48 -106 -48
-116 0 -9 26 -53 58 -97 32 -43 235 -320 452 -614 216 -294 399 -551 408 -570
23 -53 20 -146 -5 -202 -17 -37 -139 -167 -530 -564 -550 -560 -555 -564 -658
-564 -68 0 -121 27 -292 146 -79 54 -178 123 -220 152 -43 30 -251 173 -463
319 -212 146 -395 270 -408 276 -20 9 -47 -1 -196 -76 -96 -48 -176 -87 -179
-87 -3 0 -34 -13 -69 -29 -65 -30 -245 -97 -335 -126 -28 -9 -56 -22 -62 -28
-9 -11 -38 -155 -61 -307 -9 -58 -156 -928 -188 -1117 -23 -129 -51 -188 -112
-232 -70 -50 -104 -54 -411 -49 -154 3 -282 7 -284 10 -6 6 -23 1044 -56 3407
-9 644 -14 807 -24 818 -9 8 -38 13 -79 13 -74 0 -216 18 -231 29 -5 5 -38 13
-72 20 -34 7 -75 18 -90 26 -15 8 -33 15 -40 15 -6 0 -34 11 -61 25 -28 14
-55 25 -62 25 -7 0 -32 14 -57 30 -24 17 -46 30 -49 30 -3 0 -25 14 -49 30
-24 17 -47 30 -51 30 -27 0 -344 307 -344 335 0 5 -9 16 -20 23 -11 7 -20 17
-20 22 0 6 -15 32 -33 58 -47 68 -135 250 -158 327 -6 22 -15 47 -20 57 -4 9
-13 47 -20 85 -6 37 -16 74 -22 81 -7 9 -11 104 -11 276 0 229 3 266 17 286 9
14 17 40 17 60 0 19 6 46 13 60 7 14 19 52 27 85 7 33 19 67 27 76 7 8 13 20
13 25 0 5 11 31 25 58 14 27 25 54 25 59 0 5 14 26 30 47 17 21 30 42 30 48 0
6 18 33 40 61 22 28 40 56 40 62 0 15 286 299 301 299 6 0 34 17 62 37 61 45
99 68 147 88 19 9 42 20 50 25 8 6 22 13 30 16 8 3 29 11 45 19 17 7 48 19 70
26 22 6 48 16 59 21 10 5 45 14 78 19 32 5 67 14 76 19 9 5 68 14 130 18 62 5
117 13 123 19 6 6 6 248 -1 684 -23 1490 -30 1969 -35 2534 -3 325 -8 677 -11
783 l-6 192 -317 0 c-303 0 -431 -9 -431 -31 0 -5 -6 -9 -13 -9 -40 0 -102
-112 -109 -198 -4 -34 -11 -68 -16 -75 -5 -7 -13 -45 -16 -84 -3 -40 -9 -106
-12 -145 -3 -40 -11 -79 -16 -86 -6 -7 -15 -53 -19 -103 -5 -50 -13 -97 -18
-103 -8 -11 -15 -62 -27 -211 -4 -38 -11 -75 -16 -82 -5 -7 -14 -56 -18 -109
-5 -53 -13 -100 -18 -103 -5 -3 -12 -40 -16 -81 -3 -41 -9 -104 -12 -140 -3
-36 -9 -74 -14 -85 -4 -11 -11 -28 -14 -38 -3 -9 -18 -22 -33 -27 -16 -6 -37
-14 -48 -19 -11 -5 -42 -15 -70 -21 -49 -12 -75 -21 -145 -53 -19 -9 -54 -22
-77 -29 -24 -7 -43 -16 -43 -20 0 -5 -7 -8 -15 -8 -14 0 -35 -9 -75 -32 -8 -4
-22 -11 -30 -14 -30 -12 -125 -55 -140 -64 -8 -5 -51 -27 -95 -49 l-80 -41
-43 21 c-23 12 -42 25 -42 30 0 5 -6 9 -12 9 -7 1 -29 14 -48 30 -19 17 -38
30 -42 30 -4 0 -16 7 -25 15 -37 32 -119 91 -135 98 -10 3 -18 11 -18 17 0 5
-5 10 -11 10 -12 0 -102 61 -107 73 -2 4 -8 7 -14 7 -5 0 -35 21 -66 46 -31
25 -66 50 -77 54 -11 4 -48 33 -82 64 -33 31 -66 56 -72 56 -6 0 -11 4 -11 9
0 5 -12 16 -27 24 -16 8 -45 24 -65 34 -20 11 -59 37 -87 57 -28 20 -54 36
-57 36 -3 0 -31 20 -63 45 -31 25 -61 45 -65 45 -4 0 -26 15 -49 34 -66 52
-103 66 -177 66 -48 0 -71 -4 -80 -15 -7 -8 -18 -15 -25 -15 -14 0 -285 -267
-285 -281 0 -5 -6 -9 -14 -9 -8 0 -18 -9 -21 -20 -3 -11 -13 -20 -21 -20 -8 0
-14 -5 -14 -12 0 -7 -157 -170 -350 -363 -272 -273 -350 -357 -350 -376 0 -14
-5 -30 -11 -36 -16 -16 -17 -95 -1 -101 6 -2 12 -15 12 -29 0 -15 17 -49 40
-79 22 -29 40 -58 40 -63 0 -6 9 -16 20 -23 11 -7 20 -17 20 -23 1 -5 14 -26
30 -45 17 -19 30 -40 30 -47 0 -7 4 -13 8 -13 8 0 53 -62 97 -134 11 -18 37
-52 57 -76 21 -24 38 -47 38 -52 0 -4 7 -16 15 -25 32 -37 91 -119 98 -135 3
-10 11 -18 17 -18 5 0 10 -6 10 -12 1 -7 14 -29 30 -48 17 -19 30 -40 30 -47
0 -7 5 -13 10 -13 6 0 13 -8 17 -17 3 -10 23 -38 43 -63 20 -25 40 -53 43 -62
4 -10 11 -18 17 -18 5 0 10 -6 10 -12 1 -7 14 -29 30 -48 17 -19 30 -40 30
-47 0 -7 5 -13 10 -13 6 0 13 -8 17 -17 3 -10 21 -37 39 -60 46 -57 56 -85 42
-125 -6 -18 -16 -40 -22 -48 -7 -8 -28 -49 -47 -90 -20 -41 -48 -100 -62 -131
-15 -31 -27 -62 -27 -70 0 -8 -6 -23 -14 -34 -7 -11 -19 -37 -26 -58 -7 -22
-18 -51 -26 -65 -8 -15 -14 -35 -14 -45 0 -11 -6 -31 -14 -45 -8 -15 -19 -47
-26 -72 -7 -25 -17 -55 -22 -66 -6 -12 -13 -36 -17 -54 -3 -18 -13 -36 -21
-40 -8 -4 -29 -15 -47 -24 -18 -9 -55 -16 -88 -16 -31 0 -71 -6 -88 -14 -30
-14 -65 -19 -217 -33 -36 -3 -68 -10 -71 -15 -3 -5 -48 -14 -100 -20 -52 -6
-97 -15 -100 -20 -3 -4 -44 -12 -92 -17 -48 -5 -93 -13 -99 -18 -7 -6 -42 -13
-78 -17 -161 -16 -186 -19 -196 -28 -7 -5 -54 -14 -105 -20 -52 -6 -99 -14
-105 -19 -6 -5 -37 -11 -70 -15 -57 -7 -121 -32 -156 -62 -10 -8 -28 -35 -40
-61 l-23 -46 3 -720 c1 -415 6 -728 11 -740 5 -11 12 -36 15 -55 12 -72 95
-124 223 -140 48 -6 96 -16 106 -21 9 -5 62 -14 118 -20 55 -5 108 -14 117
-19 10 -5 64 -14 122 -21 58 -7 110 -15 115 -20 6 -4 57 -13 115 -20 58 -7
107 -15 110 -19 3 -4 52 -12 110 -19 58 -7 110 -16 115 -21 6 -4 59 -13 119
-19 60 -6 114 -15 120 -20 6 -4 43 -11 81 -14 63 -6 73 -9 98 -39 15 -18 27
-39 27 -47 0 -20 19 -80 36 -113 8 -14 14 -36 14 -47 0 -12 9 -38 20 -58 11
-21 23 -52 26 -70 3 -18 10 -33 14 -33 4 0 13 -18 20 -40 7 -22 17 -40 22 -40
4 0 8 -8 8 -17 0 -15 48 -125 70 -163 34 -56 100 -195 100 -210 0 -21 -28 -68
-81 -138 -19 -26 -38 -55 -42 -64 -3 -10 -11 -18 -17 -18 -5 0 -10 -6 -10 -13
0 -7 -13 -28 -30 -47 -16 -19 -29 -40 -30 -46 0 -7 -7 -14 -15 -18 -8 -3 -15
-10 -15 -16 0 -6 -18 -33 -40 -61 -22 -28 -40 -54 -40 -58 0 -8 -79 -115 -105
-142 -8 -9 -15 -19 -15 -23 0 -4 -11 -22 -25 -40 -14 -18 -25 -38 -25 -43 0
-6 -7 -13 -15 -17 -8 -3 -15 -10 -15 -16 0 -5 -23 -38 -51 -72 -28 -35 -53
-70 -56 -78 -3 -8 -25 -40 -49 -72 -24 -31 -44 -59 -44 -63 0 -4 -20 -32 -45
-64 -25 -31 -45 -60 -45 -64 0 -4 -15 -27 -34 -52 -19 -24 -37 -58 -41 -74 -4
-17 -11 -33 -16 -36 -12 -8 -12 -72 1 -80 6 -3 10 -17 10 -29 0 -13 9 -35 20
-49 11 -14 20 -29 20 -34 0 -13 94 -103 108 -103 7 0 12 -6 12 -14 0 -7 9 -16
21 -19 11 -3 23 -15 26 -26 3 -11 11 -21 19 -23 8 -2 179 -168 381 -369 463
-460 468 -465 537 -479 59 -12 144 2 159 27 4 7 13 13 18 13 6 0 25 11 43 25
18 14 38 25 44 25 7 0 12 4 12 9 0 6 11 16 24 23 27 15 103 70 129 92 9 9 20
16 25 16 4 1 23 14 42 30 19 17 40 30 47 30 7 0 13 5 13 10 0 6 8 14 18 17 9
4 37 23 62 43 25 21 53 40 63 43 9 4 17 11 17 17 0 5 6 10 13 10 6 1 28 14 47
30 19 17 39 30 45 30 5 0 16 9 23 20 7 11 17 20 23 20 6 0 29 15 52 34 23 18
53 39 67 46 14 7 55 37 91 67 36 29 69 53 73 53 4 0 26 15 49 34 23 18 53 39
67 46 14 7 44 28 67 47 23 19 58 37 78 40 35 6 115 -13 115 -27 0 -4 18 -13
40 -20 22 -7 40 -16 40 -20 0 -3 17 -12 38 -19 20 -7 69 -28 108 -47 39 -19
86 -37 103 -40 17 -4 31 -10 31 -14 0 -4 21 -13 48 -20 26 -7 52 -16 57 -20 6
-3 30 -12 55 -19 25 -7 54 -18 65 -23 10 -6 51 -18 90 -27 78 -18 93 -36 103
-118 2 -24 8 -43 12 -43 4 0 10 -28 14 -63 3 -34 9 -89 12 -122 4 -33 10 -65
15 -71 5 -5 13 -50 18 -98 6 -49 14 -93 19 -100 6 -6 12 -38 15 -71 12 -117
20 -170 27 -180 5 -5 13 -55 20 -110 6 -55 17 -109 22 -120 6 -11 15 -57 19
-103 4 -46 12 -88 17 -95 5 -7 12 -39 16 -72 15 -141 18 -162 32 -192 8 -17
14 -34 14 -38 0 -21 65 -85 98 -96 20 -6 42 -16 49 -21 6 -5 168 -9 370 -8
l358 0 1 -105 c1 -68 5 -110 13 -118 9 -9 112 -11 414 -8 221 2 449 5 507 7
351 11 488 14 975 18 1247 13 1626 18 1730 22 61 3 274 7 475 10 376 4 665 18
753 35 27 5 70 9 94 9 63 0 128 18 189 54 29 17 81 47 116 66 34 19 104 73
154 120 51 47 114 102 141 122 169 131 189 149 390 348 216 216 245 246 298
319 26 35 73 91 104 125 32 35 91 112 131 172 40 60 108 159 151 220 43 61 94
139 114 173 55 96 97 166 183 310 45 73 87 150 93 170 6 20 42 95 78 167 80
158 116 236 152 329 14 39 36 94 48 123 56 137 65 161 82 212 11 30 28 78 38
105 19 49 36 103 81 255 13 41 29 89 36 106 7 18 16 49 20 70 4 22 11 48 17
58 10 21 42 148 65 269 5 23 14 60 20 82 44 161 62 247 103 510 11 72 24 150
29 175 21 117 42 319 71 680 14 165 18 952 6 1170 -7 148 -24 322 -58 605 -18
152 -26 203 -64 410 -9 50 -21 117 -26 150 -9 56 -29 144 -79 345 -20 80 -31
125 -50 210 -17 78 -40 153 -90 295 -9 28 -39 118 -65 200 -26 83 -60 180 -76
216 -16 36 -29 69 -29 73 0 5 -11 30 -25 57 -13 27 -31 71 -38 97 -8 26 -24
64 -35 84 -12 20 -26 56 -32 80 -7 24 -30 73 -52 110 -21 36 -48 88 -58 115
-10 26 -37 82 -61 123 -23 41 -53 99 -66 129 -70 159 -545 864 -644 956 -17
17 -58 63 -91 104 -32 41 -76 90 -98 108 -21 18 -54 55 -74 81 -19 26 -74 81
-121 122 -48 41 -110 98 -139 125 -29 28 -76 70 -105 95 -28 25 -93 87 -144
139 -100 101 -250 228 -337 283 -42 27 -71 37 -120 42 -35 4 -72 12 -81 16 -9
5 -32 10 -50 11 -19 1 -47 5 -64 10 -72 19 -952 33 -1135 18z"/>
<path d="M10198 9030 c-5 -15 1 -2395 6 -2685 3 -137 5 -263 6 -278 l0 -29 78
6 c105 8 160 19 272 56 483 162 853 556 980 1045 36 139 45 219 44 390 -1 208
-26 348 -91 520 -133 354 -395 645 -733 815 -122 61 -319 129 -439 151 -122
22 -118 22 -123 9z"/>
</g>
</svg>
